<?xml version="1.0" standalone="no"?><!DOCTYPE svg PUBLIC "-//W3C//DTD SVG 1.1//EN" "http://www.w3.org/Graphics/SVG/1.1/DTD/svg11.dtd"><svg t="1717953949376" class="icon" viewBox="0 0 1024 1024" version="1.1" xmlns="http://www.w3.org/2000/svg" p-id="997" xmlns:xlink="http://www.w3.org/1999/xlink" width="64" height="64"><path d="M625.708761 651.602502L369.713366 651.602502l127.998209-479.750505L625.708761 651.602502zM409.677567 620.903316l176.068018 0-88.034009-329.962014L409.677567 620.903316z" fill="#419fff" p-id="998"></path><path d="M815.357076 1014.882342L211.997322 1014.882342c-52.12414799 0-101.343129-20.514219-138.593522-57.763588-37.250392-37.249369-57.764612-86.469374-57.764612-138.593522L15.639189 215.166501c0-52.12414799 20.51421901-101.344153 57.764612-138.59352201 37.249369-37.249369 86.469374-57.763588 138.593522-57.76358799l603.359754 0c52.12414799 0 101.343129 20.514219 138.593522 57.763588s57.763588 86.469374 57.763588 138.593522L1011.714186 818.525232c0 52.12414799-20.514219 101.343129-57.763588 138.593522S867.481224 1014.882342 815.357076 1014.882342zM211.997322 49.508577c-91.344404 0-165.657924 74.314543-165.657924 165.657924L46.339398 818.525232c0 91.344404 74.314543 165.657924 165.657924 165.657924l603.359754 0c91.344404 0 165.657924-74.313519 165.657924-165.657924L981.015 215.166501c0-91.344404-74.313519-165.657924-165.657924-165.65792399L211.997322 49.508577zM876.537484 853.986885L648.297222 853.986885l-49.084928-185.68198L372.724956 853.986885 150.816914 853.986885l213.345016-674.28306 299.030537 1e-8 3.390213 10.71913199L876.537484 853.986885zM671.935596 823.287699l162.688289 0L640.706337 210.404034 386.648061 210.404034 192.729489 823.287699l169.019485 0L616.685247 614.283548 671.935596 823.287699z" fill="#419fff" p-id="999"></path></svg>